<svg display="none" xmlns="http://www.w3.org/2000/svg">
	<symbol id="close-overview" viewBox="0 0 256 256">
		<g><path d="M137.051,128l75.475-75.475c2.5-2.5,2.5-6.551,0-9.051s-6.551-2.5-9.051,0L128,118.949L52.525,43.475  c-2.5-2.5-6.551-2.5-9.051,0s-2.5,6.551,0,9.051L118.949,128l-75.475,75.475c-2.5,2.5-2.5,6.551,0,9.051  c1.25,1.25,2.888,1.875,4.525,1.875s3.275-0.625,4.525-1.875L128,137.051l75.475,75.475c1.25,1.25,2.888,1.875,4.525,1.875  s3.275-0.625,4.525-1.875c2.5-2.5,2.5-6.551,0-9.051L137.051,128z"/></g>
	</symbol>
	<symbol id="search-icon" viewBox="0 0 16 16">
		<g><path d="M14 14L10 10M11.3333 6.66667C11.3333 9.244 9.244 11.3333 6.66667 11.3333C4.08934 11.3333 2 9.244 2 6.66667C2 4.08934 4.08934 2 6.66667 2C9.244 2 11.3333 4.08934 11.3333 6.66667Z" stroke="white" stroke-width="2" stroke-linecap="round" stroke-linejoin="round"/></g>
	</symbol>
		<symbol id="logo-img" viewBox="0 0 220 31">
		<g><path d="M45.4142 15.9196C45.546 13.2986 43.606 11.497 41.355 11.2345C40.7982 11.1693 40.4407 11.518 40.2929 11.9776C38.9596 12.167 37.8117 13.9102 37.6506 15.2403C37.3773 17.5043 38.959 19.6042 41.0418 19.7661C43.2412 19.9373 45.2888 18.4154 45.4142 15.9196ZM39.2785 15.1367C39.4419 14.3154 39.9485 13.8439 40.489 13.3902C40.6777 13.6451 40.9656 13.8146 41.3553 13.8074C42.4893 13.786 43.6888 14.5628 43.548 15.9468C43.3989 17.3996 41.9108 18.0348 40.7043 17.7052C39.7065 17.4336 39.0618 16.2198 39.2785 15.1367Z"/>
<path d="M50.2613 15.2402C49.989 17.5042 51.57 19.6042 53.6525 19.766C55.8515 19.9373 57.8988 18.4153 58.0256 15.9192C58.1574 13.2982 56.217 11.4966 53.9654 11.2341C53.4089 11.1689 53.0514 11.5177 52.9043 11.9772C51.5706 12.1669 50.4224 13.9102 50.2613 15.2402ZM56.1594 15.9467C56.0099 17.3996 54.5212 18.0347 53.3153 17.7052C52.3175 17.4336 51.6725 16.2198 51.8891 15.1367C52.0529 14.3154 52.5595 13.8439 53.1003 13.3902C53.2887 13.6451 53.5769 13.8146 53.9657 13.8073C55.1003 13.786 56.2998 14.5627 56.1594 15.9467Z"/>
<path d="M47.5723 12.6612C49.771 12.8322 51.8189 11.3102 51.9444 8.81443C52.0768 6.19341 50.1364 4.39186 47.8855 4.12932C47.3287 4.06414 46.9712 4.4125 46.8234 4.87203C45.4908 5.06142 44.3422 6.80503 44.1811 8.13473C43.9085 10.3991 45.4894 12.4994 47.5723 12.6612ZM45.809 8.03117C45.9724 7.20988 46.4796 6.7384 47.0201 6.28466C47.2088 6.53959 47.4967 6.70907 47.8858 6.70182C49.0205 6.68046 50.22 7.45721 50.0782 8.84159C49.9301 10.2951 48.442 10.9296 47.2351 10.6C46.237 10.3277 45.5923 9.11463 45.809 8.03117Z"/>
<path d="M47.6602 18.0949C47.1034 18.0297 46.7466 18.3777 46.5988 18.8376C45.2655 19.027 44.1169 20.7706 43.9558 22.101C43.6832 24.365 45.2648 26.4649 47.347 26.6268C49.547 26.7981 51.5933 25.2761 51.7201 22.78C51.8519 20.1586 49.9115 18.3574 47.6602 18.0949ZM49.8536 22.8068C49.7048 24.2603 48.2164 24.8955 47.0095 24.5649C46.0114 24.2933 45.3667 23.0802 45.584 21.9967C45.7474 21.1747 46.254 20.7039 46.7945 20.2499C46.9832 20.5044 47.2711 20.6743 47.6602 20.6677C48.7945 20.646 49.9947 21.4228 49.8536 22.8068Z"/>
<path d="M43.3231 30.2237C45.2398 30.948 47.1693 31.1312 49.0784 30.9146C49.1812 30.9259 49.2897 30.9244 49.4049 30.9034C49.6915 30.8524 49.9764 30.7923 50.2589 30.7267C51.7613 30.4298 53.2474 29.9047 54.6982 29.2145C56.882 28.1763 58.8626 26.7086 60.4988 24.8209C62.1091 22.9636 62.9432 20.8021 63.9683 18.5515C64.127 18.2035 63.6464 17.895 63.4873 18.2451C62.6756 20.0275 61.3565 21.4485 60.1104 22.8799C59.9596 23.0537 59.8049 23.2236 59.6475 23.3912C61.0899 20.3393 61.7503 16.4288 61.279 13.1027C60.3417 6.49724 55.277 1.78714 49.2854 1.09114C43.371 0.404563 37.2605 3.62417 35.0196 9.82947C33.4955 14.0493 33.6666 19.2804 35.6237 23.2993C37.2372 26.6134 40.0986 29.0052 43.3231 30.2237ZM36.2158 13.3326C37.0675 7.62271 41.4409 3.50757 46.7163 3.18384C52.4496 2.83222 57.5862 6.26693 59.1003 12.4023C59.3855 13.56 59.4038 14.1054 59.3649 15.4116C59.302 17.5868 58.9578 19.7968 58.1098 21.7831C56.3577 25.8852 52.8221 27.988 48.8194 28.592C48.4803 28.6438 48.2593 28.8234 48.1375 29.0617C47.4006 29.0823 46.6677 29.0298 45.9524 28.8806C43.2185 28.3106 40.6278 26.8176 38.7736 24.5417C36.3046 21.5111 35.631 17.2475 36.2158 13.3326Z"/>
<path d="M48.8174 16.3962C49.0075 16.189 49.1516 15.8494 49.1396 15.5517C49.1123 14.9042 48.657 14.3571 48.0416 14.3571C47.76 14.3571 47.4645 14.4903 47.2651 14.7069C47.0744 14.914 46.9313 15.254 46.9436 15.5517C46.9702 16.1988 47.4262 16.7463 48.0416 16.7463C48.3222 16.7463 48.6181 16.6123 48.8174 16.3962Z"/>
<path d="M79.4142 14.9196C79.546 12.2986 77.606 10.497 75.355 10.2345C74.7982 10.1693 74.4407 10.518 74.2929 10.9776C72.9596 11.167 71.8117 12.9102 71.6506 14.2403C71.3773 16.5043 72.959 18.6042 75.0418 18.7661C77.2412 18.9373 79.2888 17.4154 79.4142 14.9196ZM73.2785 14.1367C73.4419 13.3154 73.9485 12.8439 74.489 12.3902C74.6777 12.6451 74.9656 12.8146 75.3553 12.8074C76.4893 12.786 77.6888 13.5628 77.548 14.9468C77.3989 16.3996 75.9108 17.0348 74.7043 16.7052C73.7065 16.4336 73.0618 15.2198 73.2785 14.1367Z"/>
<path d="M84.2613 14.2403C83.989 16.5043 85.57 18.6042 87.6525 18.7661C89.8515 18.9373 91.8988 17.4153 92.0256 14.9193C92.1574 12.2982 90.217 10.4967 87.9654 10.2341C87.4089 10.169 87.0514 10.5177 86.9043 10.9772C85.5706 11.167 84.4224 12.9102 84.2613 14.2403ZM90.1594 14.9468C90.0099 16.3996 88.5212 17.0348 87.3153 16.7052C86.3175 16.4336 85.6725 15.2198 85.8891 14.1367C86.0529 13.3154 86.5595 12.8439 87.1003 12.3902C87.2887 12.6451 87.5769 12.8146 87.9657 12.8074C89.1003 12.786 90.2998 13.5628 90.1594 14.9468Z"/>
<path d="M81.5723 11.6613C83.771 11.8322 85.8189 10.3102 85.9444 7.81446C86.0769 5.19344 84.1365 3.39189 81.8855 3.12935C81.3287 3.06417 80.9712 3.41253 80.8234 3.87206C79.4908 4.06145 78.3422 5.80506 78.1811 7.13476C77.9085 9.3991 79.4895 11.4994 81.5723 11.6613ZM79.809 7.0312C79.9724 6.20991 80.4796 5.73843 81.0201 5.28469C81.2089 5.53962 81.4968 5.7091 81.8858 5.70185C83.0205 5.68049 84.22 6.45724 84.0782 7.84162C83.9301 9.29517 82.442 9.92961 81.2352 9.60008C80.237 9.32776 79.5923 8.11466 79.809 7.0312Z"/>
<path d="M81.6602 17.0949C81.1034 17.0297 80.7466 17.3777 80.5988 17.8376C79.2655 18.027 78.1169 19.7706 77.9558 21.101C77.6832 23.365 79.2648 25.4649 81.347 25.6268C83.547 25.7981 85.5933 24.2761 85.7201 21.78C85.8519 19.1586 83.9115 17.3574 81.6602 17.0949ZM83.8536 21.8068C83.7048 23.2603 82.2164 23.8955 81.0095 23.5649C80.0113 23.2933 79.3666 22.0802 79.584 20.9967C79.7474 20.1747 80.254 19.7039 80.7945 19.2499C80.9832 19.5044 81.2711 19.6743 81.6602 19.6677C82.7945 19.646 83.9947 20.4228 83.8536 21.8068Z"/>
<path d="M77.3231 29.2237C79.2398 29.948 81.1693 30.1312 83.0784 29.9146C83.1812 29.9259 83.2897 29.9244 83.4049 29.9034C83.6915 29.8524 83.9764 29.7923 84.2589 29.7267C85.7613 29.4298 87.2474 28.9047 88.6982 28.2145C90.882 27.1763 92.8626 25.7086 94.4988 23.8209C96.1091 21.9636 96.9432 19.8021 97.9683 17.5515C98.127 17.2035 97.6464 16.895 97.4873 17.2451C96.6756 19.0275 95.3565 20.4485 94.1104 21.8799C93.9596 22.0537 93.8049 22.2236 93.6475 22.3912C95.0899 19.3393 95.7503 15.4288 95.279 12.1027C94.3417 5.49724 89.277 0.787139 83.2854 0.0911434C77.371 -0.595437 71.2605 2.62417 69.0196 8.82947C67.4955 13.0493 67.6666 18.2804 69.6237 22.2993C71.2372 25.6134 74.0986 28.0052 77.3231 29.2237ZM70.2158 12.3326C71.0675 6.62271 75.4409 2.50757 80.7163 2.18384C86.4496 1.83222 91.5862 5.26693 93.1003 11.4023C93.3855 12.56 93.4038 13.1054 93.3649 14.4116C93.302 16.5868 92.9578 18.7968 92.1098 20.7831C90.3577 24.8852 86.8221 26.988 82.8194 27.592C82.4803 27.6438 82.2593 27.8234 82.1375 28.0617C81.4006 28.0823 80.6677 28.0298 79.9524 27.8806C77.2185 27.3106 74.6278 25.8176 72.7736 23.5417C70.3046 20.5111 69.631 16.2475 70.2158 12.3326Z"/>
<path d="M82.8174 15.3962C83.0075 15.189 83.1516 14.8494 83.1396 14.5517C83.1123 13.9042 82.657 13.3571 82.0416 13.3571C81.76 13.3571 81.4645 13.4903 81.2651 13.7069C81.0744 13.914 80.9313 14.254 80.9436 14.5517C80.9702 15.1988 81.4262 15.7463 82.0416 15.7463C82.3222 15.7463 82.6181 15.6123 82.8174 15.3962Z"/>
<path d="M32.7031 26.1406C32.4531 26.349 32.1042 26.5833 31.6562 26.8438C31.2083 27.1042 30.6823 27.349 30.0781 27.5781C29.4844 27.8073 28.8281 28 28.1094 28.1562C27.3906 28.3125 26.6406 28.3906 25.8594 28.3906C25.9948 28.1406 26.1042 27.9167 26.1875 27.7188C26.2812 27.5104 26.3542 27.3073 26.4062 27.1094C26.4688 26.9115 26.5104 26.7135 26.5312 26.5156C26.5521 26.3177 26.5625 26.099 26.5625 25.8594C26.5625 25.5885 26.5469 25.1198 26.5156 24.4531C26.4844 23.776 26.4479 22.9844 26.4062 22.0781C26.3646 21.1719 26.3177 20.1875 26.2656 19.125C26.2135 18.0625 26.1615 17.0104 26.1094 15.9688C26.0677 14.9271 26.026 13.9375 25.9844 13C25.9531 12.0625 25.9323 11.2604 25.9219 10.5938C25.3698 11.5625 24.8229 12.4583 24.2812 13.2812C23.75 14.0938 23.224 14.875 22.7031 15.625C22.1927 16.375 21.6927 17.1094 21.2031 17.8281C20.724 18.5469 20.2552 19.2917 19.7969 20.0625C19.349 20.8333 18.9219 21.651 18.5156 22.5156C18.1094 23.3698 17.7292 24.3125 17.375 25.3438L14.6562 28.3906C14.6771 28.026 14.6094 27.5885 14.4531 27.0781C14.2969 26.5573 14.1146 26.0573 13.9062 25.5781C13.6667 25.0156 13.3958 24.4375 13.0938 23.8438C12.7396 23.1979 12.2656 22.3125 11.6719 21.1875C11.151 20.2396 10.4688 18.974 9.625 17.3906C8.78125 15.8073 7.72917 13.8385 6.46875 11.4844C6.39583 12.7552 6.32292 14.0417 6.25 15.3438C6.1875 16.6458 6.09896 17.9375 5.98438 19.2188C5.86979 20.4896 5.70833 21.7396 5.5 22.9688C5.30208 24.1875 5.03646 25.3438 4.70312 26.4375C4.88021 26.5 5.07812 26.5469 5.29688 26.5781C5.51562 26.6094 5.73438 26.625 5.95312 26.625C6.18229 26.625 6.40104 26.6146 6.60938 26.5938C6.81771 26.5729 7.00521 26.5521 7.17188 26.5312C7.35938 26.5 7.54167 26.4688 7.71875 26.4375C7.28125 26.7708 6.875 27.0573 6.5 27.2969C6.13542 27.5365 5.75521 27.7396 5.35938 27.9062C4.97396 28.0729 4.54688 28.1927 4.07812 28.2656C3.60938 28.349 3.05208 28.3906 2.40625 28.3906C2.69792 28.1094 2.94792 27.6458 3.15625 27C3.375 26.3438 3.55729 25.5677 3.70312 24.6719C3.85938 23.7656 3.98958 22.7656 4.09375 21.6719C4.19792 20.5781 4.28646 19.4583 4.35938 18.3125C4.44271 17.1562 4.50521 16 4.54688 14.8438C4.59896 13.6875 4.65104 12.5938 4.70312 11.5625C4.75521 10.5208 4.80729 9.57292 4.85938 8.71875C4.91146 7.85417 4.97917 7.14583 5.0625 6.59375L7.32812 4.09375C7.24479 4.26042 7.20312 4.44792 7.20312 4.65625C7.20312 4.86458 7.22396 5.0625 7.26562 5.25C7.30729 5.46875 7.36979 5.69271 7.45312 5.92188C7.50521 6.05729 7.64583 6.35417 7.875 6.8125C8.10417 7.27083 8.39062 7.83854 8.73438 8.51562C9.07812 9.18229 9.46875 9.94271 9.90625 10.7969C10.3542 11.6406 10.8177 12.526 11.2969 13.4531C11.776 14.3698 12.2604 15.3021 12.75 16.25C13.2396 17.1875 13.7083 18.0885 14.1562 18.9531C14.6042 19.8177 15.0156 20.625 15.3906 21.375C15.7656 22.1146 16.0781 22.7448 16.3281 23.2656C17.2135 21.8906 18.1094 20.5 19.0156 19.0938C19.9323 17.6875 20.8073 16.2865 21.6406 14.8906C22.4844 13.4948 23.2656 12.1094 23.9844 10.7344C24.7135 9.34896 25.3385 7.98958 25.8594 6.65625L29.125 4.09375C29.0625 6.02083 29.0469 7.86979 29.0781 9.64062C29.1094 11.401 29.1562 13.1198 29.2188 14.7969C29.2917 16.474 29.3594 18.1198 29.4219 19.7344C29.4844 21.349 29.5156 22.9635 29.5156 24.5781C29.5156 25.0469 29.4844 25.4323 29.4219 25.7344C29.3698 26.026 29.2708 26.2292 29.125 26.3438C29.6042 26.4062 30.0938 26.4375 30.5938 26.4375C31.0104 26.4375 31.401 26.4167 31.7656 26.375C32.1406 26.3229 32.4531 26.2448 32.7031 26.1406Z"/>
<path d="M105.906 5.4375C105.552 5.67708 105.161 5.9375 104.734 6.21875C104.318 6.48958 103.901 6.72917 103.484 6.9375C104.151 8.71875 104.776 10.3958 105.359 11.9688C105.953 13.5417 106.51 15.0573 107.031 16.5156C107.562 17.9635 108.052 19.375 108.5 20.75C108.948 22.1146 109.365 23.474 109.75 24.8281C110.219 24.026 110.708 23.1667 111.219 22.25C111.729 21.3333 112.224 20.3906 112.703 19.4219C113.182 18.4531 113.635 17.4688 114.062 16.4688C114.5 15.4583 114.88 14.4635 115.203 13.4844C115.526 12.5052 115.781 11.5521 115.969 10.625C116.156 9.6875 116.25 8.80208 116.25 7.96875C116.25 7.85417 116.245 7.74479 116.234 7.64062C116.224 7.52604 116.208 7.42188 116.188 7.32812C116.042 7.30729 115.891 7.29688 115.734 7.29688C115.578 7.29688 115.417 7.29688 115.25 7.29688C114.958 7.29688 114.667 7.30729 114.375 7.32812C114.094 7.33854 113.833 7.35938 113.594 7.39062C114.073 6.95312 114.5 6.61979 114.875 6.39062C115.26 6.16146 115.589 5.98958 115.859 5.875C116.172 5.75 116.448 5.67708 116.688 5.65625C116.885 5.65625 117.135 5.65625 117.438 5.65625C117.74 5.64583 118.057 5.63542 118.391 5.625C118.734 5.61458 119.078 5.60417 119.422 5.59375C119.776 5.57292 120.099 5.55729 120.391 5.54688C120.682 5.52604 120.932 5.51042 121.141 5.5C121.359 5.47917 121.5 5.45833 121.562 5.4375C121.344 5.59375 121.104 5.76042 120.844 5.9375C120.594 6.10417 120.333 6.27083 120.062 6.4375C119.802 6.59375 119.536 6.74479 119.266 6.89062C118.995 7.02604 118.734 7.14062 118.484 7.23438C118.37 8.24479 118.135 9.32292 117.781 10.4688C117.427 11.6146 117.016 12.7656 116.547 13.9219C116.078 15.0781 115.578 16.2031 115.047 17.2969C114.516 18.3802 114.01 19.3646 113.531 20.25C113.052 21.1354 112.625 21.8854 112.25 22.5C111.885 23.1146 111.63 23.5208 111.484 23.7188C111.307 23.9792 111.125 24.2552 110.938 24.5469C110.781 24.7969 110.609 25.0833 110.422 25.4062C110.245 25.7292 110.083 26.0625 109.938 26.4062L107.859 28.4844C107.651 27.8385 107.474 27.2917 107.328 26.8438C107.193 26.3958 107.068 26.0052 106.953 25.6719C106.839 25.3281 106.734 25.0156 106.641 24.7344C106.547 24.4427 106.443 24.1354 106.328 23.8125C106.214 23.4896 106.083 23.1302 105.938 22.7344C105.792 22.3281 105.609 21.8333 105.391 21.25C105.182 20.6667 104.927 19.9792 104.625 19.1875C104.323 18.3854 103.964 17.4271 103.547 16.3125C103.13 15.1875 102.646 13.8906 102.094 12.4219C101.542 10.9427 100.906 9.23438 100.188 7.29688H99.5781C99.2865 7.29688 98.9948 7.30729 98.7031 7.32812C98.4115 7.33854 98.1458 7.35938 97.9062 7.39062C98.3958 6.95312 98.8281 6.61979 99.2031 6.39062C99.5885 6.16146 99.9167 5.98958 100.188 5.875C100.5 5.75 100.776 5.67708 101.016 5.65625C101.214 5.65625 101.464 5.65625 101.766 5.65625C102.068 5.64583 102.385 5.63542 102.719 5.625C103.062 5.61458 103.406 5.60417 103.75 5.59375C104.104 5.57292 104.427 5.55729 104.719 5.54688C105.021 5.52604 105.276 5.51042 105.484 5.5C105.693 5.47917 105.833 5.45833 105.906 5.4375ZM129.609 25.9844C129.047 26.3594 128.583 26.6823 128.219 26.9531C127.854 27.224 127.521 27.4479 127.219 27.625C126.927 27.7917 126.641 27.9167 126.359 28C126.089 28.0833 125.766 28.125 125.391 28.125C124.891 28.125 124.464 28.1042 124.109 28.0625C123.755 28.0208 123.401 28 123.047 28C122.87 28 122.688 28.0052 122.5 28.0156C122.323 28.0365 122.125 28.0729 121.906 28.125C122.198 27.875 122.464 27.6042 122.703 27.3125C122.943 27.0208 123.146 26.6615 123.312 26.2344C123.49 25.8073 123.625 25.2969 123.719 24.7031C123.812 24.099 123.859 23.375 123.859 22.5312V6.75C123.536 6.78125 123.146 6.82292 122.688 6.875C122.229 6.92708 121.708 6.99479 121.125 7.07812C121.688 6.61979 122.193 6.27083 122.641 6.03125C123.099 5.79167 123.49 5.61458 123.812 5.5C124.188 5.375 124.521 5.30208 124.812 5.28125C125.177 5.29167 125.578 5.28646 126.016 5.26562C126.464 5.24479 126.891 5.21875 127.297 5.1875C127.714 5.14583 128.094 5.09896 128.438 5.04688C128.781 4.98438 129.036 4.92188 129.203 4.85938C128.714 5.18229 128.271 5.45833 127.875 5.6875C127.49 5.90625 127.12 6.08854 126.766 6.23438C126.714 8.11979 126.667 9.80729 126.625 11.2969C126.594 12.7865 126.562 14.1094 126.531 15.2656C126.51 16.4115 126.49 17.4062 126.469 18.25C126.458 19.0833 126.448 19.7969 126.438 20.3906C126.406 21.776 126.396 22.724 126.406 23.2344C126.396 23.6198 126.344 24 126.25 24.375C126.167 24.7083 126.042 25.0625 125.875 25.4375C125.708 25.8021 125.469 26.1354 125.156 26.4375C125.354 26.4583 125.547 26.4688 125.734 26.4688C125.922 26.4688 126.104 26.4688 126.281 26.4688C126.812 26.4688 127.281 26.4479 127.688 26.4062C128.104 26.3542 128.453 26.2969 128.734 26.2344C129.068 26.1615 129.359 26.0781 129.609 25.9844ZM143.938 15.75C143.844 15.7917 143.703 15.8698 143.516 15.9844C143.349 16.0885 143.109 16.2448 142.797 16.4531C142.495 16.651 142.094 16.9271 141.594 17.2812C141.677 17.125 141.672 17.0052 141.578 16.9219C141.495 16.8385 141.38 16.7812 141.234 16.75C141.057 16.7083 140.849 16.6927 140.609 16.7031C140.234 16.7344 139.693 16.7708 138.984 16.8125C138.286 16.8542 137.495 16.8906 136.609 16.9219C136.609 18.5885 136.599 19.9479 136.578 21C136.557 22.0417 136.542 22.8542 136.531 23.4375C136.51 24.125 136.49 24.6302 136.469 24.9531C136.448 25.1615 136.385 25.3646 136.281 25.5625C136.198 25.7396 136.062 25.9271 135.875 26.125C135.698 26.3229 135.448 26.5 135.125 26.6562H142.203C142.536 26.6562 142.875 26.6354 143.219 26.5938C143.51 26.5625 143.823 26.5104 144.156 26.4375C144.49 26.3646 144.807 26.2552 145.109 26.1094C144.589 26.599 144.073 26.974 143.562 27.2344C143.052 27.4948 142.583 27.6823 142.156 27.7969C141.656 27.9323 141.182 28.0104 140.734 28.0312C139.714 28.0312 138.75 28.0365 137.844 28.0469C136.938 28.0573 136.12 28.0781 135.391 28.1094C134.661 28.1406 134.036 28.1771 133.516 28.2188C133.005 28.2708 132.635 28.3281 132.406 28.3906C132.729 28.0677 132.979 27.75 133.156 27.4375C133.344 27.125 133.484 26.776 133.578 26.3906C133.672 26.0052 133.729 25.5729 133.75 25.0938C133.781 24.6042 133.792 24.026 133.781 23.3594V16.9531C133.479 16.9531 133.182 16.9479 132.891 16.9375C132.609 16.9271 132.333 16.9115 132.062 16.8906L133.781 16C133.781 15.4375 133.776 14.849 133.766 14.2344C133.766 13.6094 133.766 12.9427 133.766 12.2344C133.766 11.526 133.76 10.7656 133.75 9.95312C133.75 9.13021 133.75 8.23438 133.75 7.26562C133.281 7.26562 132.839 7.26042 132.422 7.25C132.005 7.23958 131.62 7.22396 131.266 7.20312L134.172 5.65625C136.151 5.65625 137.839 5.64583 139.234 5.625C140.641 5.59375 141.802 5.5625 142.719 5.53125C143.781 5.48958 144.667 5.44792 145.375 5.40625C145.729 5.40625 145.964 5.4375 146.078 5.5C146.193 5.55208 146.24 5.61458 146.219 5.6875C146.198 5.75 146.135 5.81771 146.031 5.89062C145.927 5.96354 145.833 6.01562 145.75 6.04688C145.667 6.08854 145.51 6.17708 145.281 6.3125C145.083 6.42708 144.802 6.60938 144.438 6.85938C144.083 7.09896 143.594 7.42708 142.969 7.84375C143.177 7.61458 143.266 7.44792 143.234 7.34375C143.203 7.22917 143.13 7.14583 143.016 7.09375C142.88 7.04167 142.693 7.01562 142.453 7.01562C142.255 7.03646 141.958 7.05729 141.562 7.07812C141.167 7.08854 140.703 7.10417 140.172 7.125C139.651 7.14583 139.083 7.16667 138.469 7.1875C137.854 7.20833 137.224 7.22396 136.578 7.23438C136.589 8.90104 136.594 10.3958 136.594 11.7188C136.604 13.0417 136.609 14.2552 136.609 15.3594C137.672 15.349 138.625 15.3333 139.469 15.3125C140.323 15.2812 141.052 15.25 141.656 15.2188C142.365 15.1771 142.995 15.1406 143.547 15.1094C143.891 15.099 144.12 15.1198 144.234 15.1719C144.349 15.224 144.396 15.2865 144.375 15.3594C144.354 15.4323 144.292 15.5104 144.188 15.5938C144.094 15.6667 144.01 15.7188 143.938 15.75Z"/>
<path d="M170.422 26.375C169.87 26.6875 169.339 26.9479 168.828 27.1562C168.328 27.3646 167.859 27.5312 167.422 27.6562C166.984 27.7812 166.589 27.8698 166.234 27.9219C165.891 27.974 165.594 28 165.344 28H163L164.703 27.0469C164.88 26.8177 165.052 26.5885 165.219 26.3594C165.385 26.1302 165.526 25.9167 165.641 25.7188C165.776 25.5 165.901 25.2812 166.016 25.0625C166.339 24.4062 166.818 23.3438 167.453 21.875C167.714 21.25 168.021 20.5052 168.375 19.6406C168.74 18.776 169.156 17.7708 169.625 16.625C170.094 15.4792 170.615 14.1771 171.188 12.7188C171.76 11.2604 172.401 9.625 173.109 7.8125L175.828 5.3125L181.953 26.0781C182.391 26.1927 182.807 26.2656 183.203 26.2969C183.609 26.3281 183.99 26.3438 184.344 26.3438C184.531 26.3438 184.703 26.3438 184.859 26.3438C185.016 26.3333 185.151 26.3229 185.266 26.3125C185.391 26.3021 185.51 26.2865 185.625 26.2656C185.021 26.5573 184.495 26.8125 184.047 27.0312C183.599 27.2396 183.198 27.4167 182.844 27.5625C182.5 27.7083 182.177 27.8177 181.875 27.8906C181.583 27.9635 181.286 28 180.984 28H178.484L179.297 27.4844L176.797 19.2031C176.495 19.2865 176.146 19.3698 175.75 19.4531C175.354 19.526 174.88 19.5938 174.328 19.6562C173.786 19.7188 173.151 19.776 172.422 19.8281C171.703 19.8802 170.87 19.9271 169.922 19.9688C169.484 20.8958 169.083 21.7188 168.719 22.4375C168.354 23.1562 168.026 23.7812 167.734 24.3125C167.443 24.8438 167.182 25.2917 166.953 25.6562C166.734 26.0208 166.547 26.3125 166.391 26.5312C166.568 26.5625 166.766 26.5885 166.984 26.6094C167.203 26.6198 167.422 26.625 167.641 26.625C167.974 26.625 168.302 26.6146 168.625 26.5938C168.958 26.5625 169.26 26.5312 169.531 26.5C169.844 26.4583 170.141 26.4167 170.422 26.375ZM172.609 18.1094C174.016 18.1094 175.292 18.0781 176.438 18.0156L174.047 10.0781C173.401 11.7344 172.807 13.2135 172.266 14.5156C171.734 15.8177 171.229 17.0156 170.75 18.1094H172.609ZM201.906 11.2344C201.833 11.9323 201.672 12.5781 201.422 13.1719C201.182 13.7552 200.885 14.2917 200.531 14.7812C200.177 15.2604 199.792 15.6927 199.375 16.0781C198.969 16.4531 198.562 16.7865 198.156 17.0781C197.76 17.3594 197.385 17.599 197.031 17.7969C196.677 17.9844 196.391 18.1302 196.172 18.2344C195.87 18.3698 195.542 18.4896 195.188 18.5938C194.885 18.6771 194.531 18.7552 194.125 18.8281C193.729 18.901 193.302 18.9271 192.844 18.9062L194.453 18.1406C195.047 18.1823 195.641 18.0312 196.234 17.6875C196.828 17.3333 197.354 16.8438 197.812 16.2188C198.271 15.5833 198.63 14.8385 198.891 13.9844C199.161 13.1198 199.26 12.1927 199.188 11.2031C199.125 10.4531 198.917 9.79167 198.562 9.21875C198.219 8.63542 197.802 8.14583 197.312 7.75C196.823 7.35417 196.292 7.05208 195.719 6.84375C195.146 6.63542 194.594 6.53125 194.062 6.53125C193.698 6.53125 193.26 6.54688 192.75 6.57812C192.24 6.59896 191.698 6.63542 191.125 6.6875C191.094 8.65625 191.057 10.4167 191.016 11.9688C190.984 13.5104 190.953 14.8802 190.922 16.0781C190.891 17.2656 190.859 18.2969 190.828 19.1719C190.807 20.0365 190.781 20.7708 190.75 21.375C190.688 22.8021 190.63 23.7708 190.578 24.2812C190.547 24.4896 190.495 24.7031 190.422 24.9219C190.359 25.1094 190.271 25.3125 190.156 25.5312C190.052 25.75 189.917 25.9635 189.75 26.1719C190.198 26.224 190.599 26.2552 190.953 26.2656C191.318 26.2656 191.651 26.2656 191.953 26.2656C192.672 26.2656 193.198 26.2448 193.531 26.2031C193.875 26.1615 194.073 26.1302 194.125 26.1094C193.583 26.3802 193.073 26.6302 192.594 26.8594C192.115 27.0885 191.656 27.2917 191.219 27.4688C190.781 27.6458 190.359 27.7865 189.953 27.8906C189.557 27.9844 189.167 28.0312 188.781 28.0312H186.062L187.438 27.1094C187.51 26.8385 187.578 26.5156 187.641 26.1406C187.714 25.7656 187.776 25.3646 187.828 24.9375C187.88 24.5 187.922 24.0521 187.953 23.5938C187.995 23.125 188.031 22.6667 188.062 22.2188C188.125 21.1875 188.172 20.0938 188.203 18.9375C188.224 17.3333 188.245 15.7812 188.266 14.2812C188.276 13.6458 188.286 12.9896 188.297 12.3125C188.307 11.6354 188.312 10.974 188.312 10.3281C188.323 9.67188 188.333 9.05729 188.344 8.48438C188.354 7.90104 188.365 7.38542 188.375 6.9375L185.547 7.23438L188.594 5.40625C188.885 5.4375 189.172 5.45833 189.453 5.46875C189.745 5.46875 190.042 5.46875 190.344 5.46875C190.854 5.46875 191.349 5.45312 191.828 5.42188C192.307 5.38021 192.781 5.33854 193.25 5.29688C193.719 5.24479 194.182 5.19792 194.641 5.15625C195.099 5.11458 195.557 5.09375 196.016 5.09375C196.839 5.09375 197.625 5.23438 198.375 5.51562C199.125 5.79688 199.776 6.20312 200.328 6.73438C200.891 7.26562 201.318 7.91146 201.609 8.67188C201.901 9.43229 202 10.2865 201.906 11.2344ZM219.469 11.2344C219.396 11.9323 219.234 12.5781 218.984 13.1719C218.745 13.7552 218.448 14.2917 218.094 14.7812C217.74 15.2604 217.354 15.6927 216.938 16.0781C216.531 16.4531 216.125 16.7865 215.719 17.0781C215.323 17.3594 214.948 17.599 214.594 17.7969C214.24 17.9844 213.953 18.1302 213.734 18.2344C213.432 18.3698 213.104 18.4896 212.75 18.5938C212.448 18.6771 212.094 18.7552 211.688 18.8281C211.292 18.901 210.865 18.9271 210.406 18.9062L212.016 18.1406C212.609 18.1823 213.203 18.0312 213.797 17.6875C214.391 17.3333 214.917 16.8438 215.375 16.2188C215.833 15.5833 216.193 14.8385 216.453 13.9844C216.724 13.1198 216.823 12.1927 216.75 11.2031C216.688 10.4531 216.479 9.79167 216.125 9.21875C215.781 8.63542 215.365 8.14583 214.875 7.75C214.385 7.35417 213.854 7.05208 213.281 6.84375C212.708 6.63542 212.156 6.53125 211.625 6.53125C211.26 6.53125 210.823 6.54688 210.312 6.57812C209.802 6.59896 209.26 6.63542 208.688 6.6875C208.656 8.65625 208.62 10.4167 208.578 11.9688C208.547 13.5104 208.516 14.8802 208.484 16.0781C208.453 17.2656 208.422 18.2969 208.391 19.1719C208.37 20.0365 208.344 20.7708 208.312 21.375C208.25 22.8021 208.193 23.7708 208.141 24.2812C208.109 24.4896 208.057 24.7031 207.984 24.9219C207.922 25.1094 207.833 25.3125 207.719 25.5312C207.615 25.75 207.479 25.9635 207.312 26.1719C207.76 26.224 208.161 26.2552 208.516 26.2656C208.88 26.2656 209.214 26.2656 209.516 26.2656C210.234 26.2656 210.76 26.2448 211.094 26.2031C211.438 26.1615 211.635 26.1302 211.688 26.1094C211.146 26.3802 210.635 26.6302 210.156 26.8594C209.677 27.0885 209.219 27.2917 208.781 27.4688C208.344 27.6458 207.922 27.7865 207.516 27.8906C207.12 27.9844 206.729 28.0312 206.344 28.0312H203.625L205 27.1094C205.073 26.8385 205.141 26.5156 205.203 26.1406C205.276 25.7656 205.339 25.3646 205.391 24.9375C205.443 24.5 205.484 24.0521 205.516 23.5938C205.557 23.125 205.594 22.6667 205.625 22.2188C205.688 21.1875 205.734 20.0938 205.766 18.9375C205.786 17.3333 205.807 15.7812 205.828 14.2812C205.839 13.6458 205.849 12.9896 205.859 12.3125C205.87 11.6354 205.875 10.974 205.875 10.3281C205.885 9.67188 205.896 9.05729 205.906 8.48438C205.917 7.90104 205.927 7.38542 205.938 6.9375L203.109 7.23438L206.156 5.40625C206.448 5.4375 206.734 5.45833 207.016 5.46875C207.307 5.46875 207.604 5.46875 207.906 5.46875C208.417 5.46875 208.911 5.45312 209.391 5.42188C209.87 5.38021 210.344 5.33854 210.812 5.29688C211.281 5.24479 211.745 5.19792 212.203 5.15625C212.661 5.11458 213.12 5.09375 213.578 5.09375C214.401 5.09375 215.188 5.23438 215.938 5.51562C216.688 5.79688 217.339 6.20312 217.891 6.73438C218.453 7.26562 218.88 7.91146 219.172 8.67188C219.464 9.43229 219.562 10.2865 219.469 11.2344Z"/></g>
	</symbol>
		<symbol id="instagram" viewBox="0 0 32 32">
		<g><path d="M17.36 2.66699C19.76 2.66699 20.267 2.69399 21.493 2.74699C22.906 2.81399 23.88 3.03999 24.72 3.37399C25.6 3.70699 26.347 4.17399 27.08 4.90699C27.827 5.63999 28.28 6.38699 28.627 7.26699C28.96 8.10699 29.174 9.07999 29.24 10.507C29.307 11.774 29.32 12.267 29.32 14.934V17.067C29.32 19.734 29.307 20.227 29.24 21.494C29.217 22.659 28.994 23.764 28.604 24.788L28.626 24.721C28.279 25.601 27.826 26.348 27.093 27.081C26.346 27.828 25.6 28.281 24.72 28.628C23.88 28.961 22.907 29.175 21.493 29.241C20.226 29.308 19.72 29.321 17.053 29.321H14.933C12.266 29.321 11.773 29.308 10.493 29.241C9.32796 29.218 8.22296 28.995 7.19896 28.605L7.26596 28.627C6.34296 28.274 5.55596 27.753 4.90696 27.094L4.90596 27.093C4.23996 26.441 3.71396 25.649 3.37396 24.764L3.35896 24.719C2.99196 23.763 2.76896 22.657 2.74596 21.502V21.492C2.69296 20.45 2.66296 19.229 2.66296 18.002C2.66296 17.776 2.66396 17.55 2.66596 17.325V17.359V14.626C2.66596 12.226 2.69296 11.719 2.74596 10.493C2.81296 9.07999 3.03896 8.10599 3.35896 7.26599C3.70596 6.38599 4.15896 5.63899 4.90596 4.90599C5.55096 4.23899 6.33996 3.71599 7.22296 3.38699L7.26596 3.37299C8.22096 3.00199 9.32596 2.77399 10.481 2.74699H10.493C11.72 2.69399 12.226 2.66699 14.626 2.66699H17.36ZM17.387 5.06699H14.6C12.293 5.06699 11.8 5.09399 10.6 5.14699C9.30696 5.19999 8.59996 5.41399 8.13296 5.59999C7.50596 5.83999 7.06596 6.13299 6.59996 6.59999C6.13396 7.06699 5.83996 7.50699 5.59996 8.13299C5.42696 8.59999 5.19996 9.30599 5.14696 10.613C5.09396 11.813 5.06696 12.293 5.06696 14.613V17.386C5.06696 19.706 5.09396 20.186 5.14696 21.386C5.19996 22.679 5.41396 23.386 5.59996 23.853C5.83996 24.48 6.13296 24.92 6.59996 25.386C7.06696 25.852 7.50696 26.146 8.13296 26.386C8.59996 26.573 9.30596 26.786 10.613 26.839C11.906 26.906 12.373 26.919 15.253 26.919H16.733C19.626 26.919 20.08 26.906 21.386 26.839C22.679 26.786 23.386 26.572 23.853 26.386C24.48 26.146 24.92 25.853 25.386 25.386C25.852 24.919 26.146 24.479 26.386 23.853C26.573 23.386 26.786 22.68 26.839 21.386C26.906 20.079 26.919 19.626 26.919 16.733V15.266C26.919 12.373 26.906 11.906 26.839 10.599C26.786 9.30599 26.572 8.59899 26.386 8.13199C26.16 7.53099 25.819 7.01799 25.387 6.59999L25.386 6.59899C24.966 6.16599 24.454 5.82499 23.881 5.60799L23.853 5.59899C23.121 5.32299 22.275 5.15799 21.391 5.14599H21.386C20.358 5.09399 19.155 5.06399 17.944 5.06399C17.748 5.06399 17.552 5.06499 17.356 5.06599H17.386L17.387 5.06699ZM16 9.14699C19.781 9.14699 22.847 12.212 22.847 15.994C22.847 19.776 19.782 22.841 16 22.841C12.219 22.841 9.15296 19.776 9.15296 15.994C9.15296 12.212 12.218 9.14699 16 9.14699ZM16 11.547C13.544 11.547 11.553 13.538 11.553 15.994C11.553 18.45 13.544 20.441 16 20.441C18.456 20.441 20.447 18.45 20.447 15.994C20.447 13.538 18.456 11.547 16 11.547ZM23.107 7.27999C23.991 7.27999 24.707 7.99599 24.707 8.87999C24.707 9.76399 23.991 10.48 23.107 10.48C22.223 10.48 21.507 9.76399 21.507 8.87999C21.507 7.99599 22.223 7.27999 23.107 7.27999Z"/></g>
	</symbol>
	<symbol id="facebook" viewBox="0 0 32 32">
		<g><path d="M13.04 29.333L13 17.666H8V12.666H13V9.33302C13 4.84002 15.787 2.66602 19.8 2.66602C21.72 2.66602 23.373 2.79902 23.853 2.86602V7.57302H21.066C18.893 7.57302 18.466 8.61302 18.466 10.133V12.666H24.666L22.999 17.666H18.466V29.333H13.039H13.04Z"/></g>
	</symbol>
	<symbol id="twitter" viewBox="0 0 32 32">
		<g><path d="M29.333 7.83998C28.333 8.33298 27.333 8.50698 26.16 8.66698C27.333 7.99998 28.16 6.99998 28.493 5.66698C27.488 6.27498 26.317 6.73798 25.07 6.98898L25 7.00098C23.969 5.98698 22.56 5.35498 21.004 5.33398H21C18.16 5.33398 15.667 7.84098 15.667 10.841C15.667 11.334 15.667 11.668 15.84 12.001C11.262 11.823 7.22097 9.66398 4.52897 6.36198L4.50697 6.33398C4.08197 7.05998 3.83097 7.93198 3.83097 8.86298C3.83097 8.97198 3.83397 9.08098 3.84097 9.18898L3.83997 9.17398C3.87397 11.052 4.84897 12.695 6.31297 13.655L6.33397 13.668C5.49397 13.668 4.66697 13.335 3.82697 13.001C3.82697 15.668 5.66697 17.841 8.15997 18.334C7.66697 18.507 7.15997 18.507 6.66697 18.507C6.33397 18.507 5.99997 18.507 5.66697 18.334C6.33397 20.507 8.33397 22.174 10.84 22.174C9.03997 23.629 6.72397 24.509 4.20297 24.509C4.13197 24.509 4.06097 24.508 3.98997 24.507H4.00097H2.66797C5.03297 26.016 7.90397 26.936 10.984 27H11.001C21.001 27 26.508 18.667 26.508 11.493V10.826C27.655 10.036 28.601 9.03898 29.311 7.88198L29.335 7.83998H29.333Z"/></g>
	</symbol>
	<symbol id="pinterest" viewBox="0 0 32 32">
		<g><path d="M16 2.66699C8.65699 2.69399 2.71399 8.65299 2.71399 16C2.71399 21.599 6.16599 26.393 11.057 28.368L11.146 28.4C11.013 27.347 10.919 25.733 11.186 24.573L12.746 17.946C12.746 17.946 12.346 17.146 12.346 15.973C12.346 14.12 13.426 12.746 14.773 12.746C15.906 12.746 16.466 13.599 16.466 14.613C16.466 15.76 15.733 17.466 15.346 19.053C15.026 20.386 16.013 21.466 17.333 21.466C19.706 21.466 21.52 18.973 21.52 15.373C21.52 12.173 19.227 9.95999 15.947 9.95999C15.871 9.95599 15.783 9.95399 15.694 9.95399C12.505 9.95399 9.92099 12.539 9.92099 15.727C9.92099 15.729 9.92099 15.731 9.92099 15.733C9.92099 16.88 10.361 18.106 10.908 18.773C11.015 18.906 11.028 19.026 10.988 19.16L10.615 20.667C10.562 20.907 10.415 20.974 10.175 20.854C8.49499 20.067 7.45499 17.654 7.45499 15.681C7.45499 11.481 10.522 7.62799 16.282 7.62799C20.895 7.62799 24.509 10.908 24.509 15.321C24.509 19.921 21.602 23.614 17.576 23.614C16.243 23.614 14.963 22.907 14.536 22.081L13.696 25.241C13.265 26.578 12.704 27.739 12.008 28.804L12.042 28.748C13.212 29.12 14.558 29.335 15.953 29.335C23.317 29.335 29.286 23.365 29.286 16.002C29.286 8.65499 23.344 2.69599 16.004 2.66899H16.001L16 2.66699Z"/></g>
	</symbol>
</svg>